<svg xmlns="http://www.w3.org/2000/svg" xmlns:xlink="http://www.w3.org/1999/xlink" width="500" zoomAndPan="magnify" viewBox="0 0 375 374.999991" height="500" preserveAspectRatio="xMidYMid meet" version="1.2"><defs><clipPath id="d1fb6e9290"><path d="M 253.203125 49.6875 L 365.355469 49.6875 L 365.355469 161.839844 L 253.203125 161.839844 Z M 253.203125 49.6875 "/></clipPath><clipPath id="31226ca35a"><path d="M 137.339844 122.15625 L 249.496094 122.15625 L 249.496094 234.3125 L 137.339844 234.3125 Z M 137.339844 122.15625 "/></clipPath><clipPath id="b91d977a3a"><path d="M 253.203125 165.550781 L 365.355469 165.550781 L 365.355469 277.703125 L 253.203125 277.703125 Z M 253.203125 165.550781 "/></clipPath><clipPath id="97cf0f41ff"><path d="M 137.339844 6.296875 L 249.496094 6.296875 L 249.496094 118.449219 L 137.339844 118.449219 Z M 137.339844 6.296875 "/></clipPath><clipPath id="7f78facc31"><path d="M 160.078125 47 L 317.824219 47 L 317.824219 233.886719 L 160.078125 233.886719 Z M 160.078125 47 "/></clipPath><clipPath id="c03498a5ad"><path d="M 71 276 L 342 276 L 342 319.078125 L 71 319.078125 Z M 71 276 "/></clipPath><clipPath id="5ad8368bb6"><rect x="0" width="271" y="0" height="44"/></clipPath><clipPath id="69ab0dc4a9"><path d="M 0.921875 235 L 252 235 L 252 279 L 0.921875 279 Z M 0.921875 235 "/></clipPath><clipPath id="140220b9af"><rect x="0" width="252" y="0" height="44"/></clipPath><clipPath id="dfddc6f90b"><path d="M 248 0.121094 L 254 0.121094 L 254 285 L 248 285 Z M 248 0.121094 "/></clipPath><clipPath id="eff9264737"><rect x="0" width="68" y="0" height="30"/></clipPath><clipPath id="29b0e08513"><rect x="0" width="374" y="0" height="320"/></clipPath></defs><g id="32ca413d1e"><rect x="0" width="375" y="0" height="374.999991" style="fill:#ffffff;fill-opacity:1;stroke:none;"/><g transform="matrix(1,0,0,1,1,27)"><g clip-path="url(#29b0e08513)"><g clip-rule="nonzero" clip-path="url(#d1fb6e9290)"><path style=" stroke:none;fill-rule:nonzero;fill:#f58220;fill-opacity:1;" d="M 253.203125 49.6875 L 365.070312 49.6875 L 365.070312 161.554688 L 253.203125 161.554688 Z M 253.203125 49.6875 "/></g><g clip-rule="nonzero" clip-path="url(#31226ca35a)"><path style=" stroke:none;fill-rule:nonzero;fill:#f58220;fill-opacity:1;" d="M 137.339844 122.15625 L 249.210938 122.15625 L 249.210938 234.027344 L 137.339844 234.027344 Z M 137.339844 122.15625 "/></g><g clip-rule="nonzero" clip-path="url(#b91d977a3a)"><path style=" stroke:none;fill-rule:nonzero;fill:#708160;fill-opacity:1;" d="M 253.203125 165.550781 L 365.070312 165.550781 L 365.070312 277.417969 L 253.203125 277.417969 Z M 253.203125 165.550781 "/></g><g clip-rule="nonzero" clip-path="url(#97cf0f41ff)"><path style=" stroke:none;fill-rule:nonzero;fill:#708160;fill-opacity:1;" d="M 137.339844 6.296875 L 249.210938 6.296875 L 249.210938 118.164062 L 137.339844 118.164062 Z M 137.339844 6.296875 "/></g><g clip-rule="nonzero" clip-path="url(#7f78facc31)"><path style=" stroke:none;fill-rule:nonzero;fill:#231f20;fill-opacity:1;" d="M 181.578125 60.359375 C 181.945312 59.238281 182.6875 58.332031 183.507812 57.582031 C 184.335938 56.824219 185.253906 56.1875 186.207031 55.625 C 187.167969 55.0625 188.152344 54.585938 189.214844 54.191406 C 189.351562 54.136719 189.480469 54.101562 189.609375 54.058594 C 189.671875 54.035156 189.738281 54.019531 189.800781 53.992188 L 189.945312 53.933594 C 190.117188 53.839844 190.21875 53.71875 190.273438 53.523438 C 190.328125 53.328125 190.328125 53.078125 190.316406 52.8125 C 190.3125 52.542969 190.277344 52.257812 190.363281 51.898438 C 190.394531 51.804688 190.429688 51.707031 190.484375 51.617188 C 190.558594 51.527344 190.605469 51.433594 190.71875 51.367188 C 190.820312 51.296875 190.964844 51.230469 191.007812 51.226562 L 191.105469 51.199219 L 191.15625 51.1875 C 191.253906 51.167969 191.191406 51.183594 191.214844 51.175781 L 191.265625 51.175781 C 191.4375 51.164062 191.609375 51.164062 191.75 51.1875 C 191.902344 51.203125 192.050781 51.230469 192.1875 51.261719 C 192.753906 51.382812 193.28125 51.554688 193.804688 51.734375 C 194.851562 52.089844 195.871094 52.496094 196.890625 52.878906 C 197.386719 53.066406 197.925781 53.269531 198.378906 53.398438 C 198.871094 53.519531 199.414062 53.59375 199.898438 53.609375 C 200.023438 53.625 200.128906 53.597656 200.246094 53.59375 C 200.367188 53.59375 200.464844 53.566406 200.554688 53.535156 C 200.753906 53.496094 200.851562 53.382812 200.96875 53.269531 C 201.175781 52.976562 201.316406 52.417969 201.550781 51.875 C 201.789062 51.332031 202.128906 50.773438 202.585938 50.355469 C 202.804688 50.140625 203.082031 49.941406 203.328125 49.761719 L 203.679688 49.550781 L 203.851562 49.445312 L 203.898438 49.417969 L 203.917969 49.40625 L 203.972656 49.378906 L 204.070312 49.332031 C 204.589844 49.101562 205.101562 48.828125 205.636719 48.65625 L 206.433594 48.363281 L 207.246094 48.125 C 208.328125 47.804688 209.433594 47.601562 210.542969 47.429688 C 211.09375 47.34375 211.652344 47.296875 212.207031 47.230469 L 213.878906 47.109375 L 215.550781 47.070312 C 216.109375 47.078125 216.667969 47.074219 217.222656 47.09375 C 218.339844 47.136719 219.453125 47.210938 220.566406 47.328125 C 221.679688 47.449219 222.789062 47.597656 223.890625 47.8125 C 225 48.007812 226.101562 48.292969 227.203125 48.617188 C 227.613281 48.734375 227.902344 49.074219 227.976562 49.464844 L 227.984375 49.492188 C 228.136719 50.277344 228.292969 51.117188 228.078125 52.070312 C 228.023438 52.304688 227.941406 52.53125 227.867188 52.761719 C 227.777344 52.976562 227.664062 53.183594 227.554688 53.390625 C 227.332031 53.757812 227.078125 54.097656 226.929688 54.316406 C 226.738281 54.570312 226.746094 54.671875 226.71875 54.738281 C 226.734375 54.789062 226.726562 54.878906 226.800781 55.0625 C 226.847656 55.160156 226.871094 55.246094 226.925781 55.355469 L 227.128906 55.703125 C 227.25 55.929688 227.453125 56.160156 227.601562 56.390625 C 227.773438 56.625 228.023438 56.910156 228.230469 57.167969 L 228.390625 57.367188 C 228.445312 57.429688 228.414062 57.394531 228.433594 57.410156 L 228.480469 57.453125 C 228.550781 57.523438 228.644531 57.609375 228.753906 57.695312 C 229.183594 58.050781 229.730469 58.417969 230.269531 58.765625 C 231.363281 59.460938 232.523438 60.109375 233.695312 60.710938 C 234.867188 61.304688 236.070312 61.867188 237.246094 62.300781 C 237.820312 62.511719 238.429688 62.703125 238.867188 62.765625 C 238.96875 62.785156 239.078125 62.785156 239.078125 62.785156 L 238.988281 62.785156 C 238.964844 62.789062 238.902344 62.808594 238.976562 62.792969 L 239.101562 62.769531 C 239.183594 62.757812 238.855469 62.816406 239.039062 62.773438 C 239.304688 62.683594 239.582031 62.605469 239.820312 62.496094 C 240.316406 62.289062 240.722656 62.058594 241.128906 61.734375 C 241.535156 61.421875 241.996094 60.960938 242.621094 60.441406 C 243.242188 59.925781 244.011719 59.414062 244.796875 59.066406 C 245.191406 58.890625 245.566406 58.734375 245.980469 58.597656 L 246.605469 58.40625 C 246.828125 58.335938 246.953125 58.320312 247.132812 58.273438 L 247.628906 58.152344 L 248.304688 58.035156 C 248.699219 57.953125 249.171875 57.929688 249.632812 57.90625 C 249.890625 57.910156 250.144531 57.921875 250.402344 57.933594 C 250.6875 57.976562 250.972656 58.023438 251.265625 58.097656 C 251.570312 58.203125 251.878906 58.285156 252.164062 58.449219 C 252.3125 58.523438 252.457031 58.605469 252.597656 58.691406 C 252.730469 58.777344 252.84375 58.867188 252.964844 58.960938 C 253.226562 59.152344 253.375 59.3125 253.574219 59.496094 L 253.988281 59.9375 C 254.097656 60.058594 254.214844 60.183594 254.300781 60.265625 C 254.394531 60.367188 254.480469 60.445312 254.558594 60.507812 C 254.71875 60.652344 254.863281 60.753906 255.03125 60.847656 C 255.117188 60.90625 255.1875 60.933594 255.246094 60.957031 C 255.324219 60.988281 255.324219 61.015625 255.53125 61.082031 L 256.011719 61.25 C 255.828125 61.1875 256.023438 61.25 256.007812 61.242188 L 256.113281 61.269531 L 256.320312 61.324219 C 256.597656 61.40625 256.871094 61.449219 257.144531 61.511719 C 257.691406 61.605469 258.234375 61.660156 258.769531 61.664062 C 259.839844 61.664062 260.871094 61.488281 261.992188 61.132812 C 262.554688 60.953125 263.144531 60.730469 263.800781 60.488281 C 264.453125 60.246094 265.191406 59.96875 266.109375 59.765625 C 267.011719 59.566406 268.210938 59.484375 269.363281 59.8125 C 269.941406 59.964844 270.464844 60.207031 270.9375 60.476562 C 271.179688 60.613281 271.4375 60.800781 271.679688 60.972656 L 272.097656 61.304688 C 273.839844 62.851562 274.511719 64.625 274.972656 66.121094 C 275.203125 66.875 275.375 67.566406 275.535156 68.195312 C 275.695312 68.839844 275.859375 69.375 276.039062 69.851562 C 276.207031 70.316406 276.425781 70.652344 276.589844 70.886719 L 276.628906 70.9375 L 276.628906 70.957031 L 276.71875 71.03125 L 277.117188 71.351562 C 277.074219 71.320312 277.351562 71.535156 277.046875 71.304688 L 277.171875 71.394531 L 277.660156 71.757812 C 278.964844 72.734375 280.152344 73.945312 281.105469 75.308594 C 282.066406 76.664062 282.769531 78.15625 283.285156 79.621094 C 283.804688 81.09375 284.152344 82.554688 284.441406 83.960938 C 284.585938 84.664062 284.714844 85.375 284.832031 86.035156 L 284.878906 86.28125 L 284.917969 86.46875 L 284.996094 86.835938 C 285.078125 87.085938 285.136719 87.339844 285.230469 87.597656 C 285.589844 88.625 286.125 89.695312 286.753906 90.777344 C 288.003906 92.941406 289.652344 95.164062 291.082031 97.75 L 291.554688 98.554688 C 291.695312 98.808594 291.863281 99.0625 292.035156 99.3125 C 292.359375 99.816406 292.738281 100.320312 293.113281 100.824219 C 293.890625 101.835938 294.730469 102.847656 295.617188 103.90625 C 296.054688 104.4375 296.546875 105.023438 296.960938 105.546875 L 297.628906 106.398438 C 297.90625 106.765625 298.121094 107.085938 298.320312 107.394531 C 299.117188 108.609375 299.792969 109.707031 300.511719 110.695312 C 300.863281 111.175781 301.226562 111.625 301.542969 111.945312 C 301.613281 112.015625 301.703125 112.117188 301.757812 112.15625 L 301.847656 112.230469 L 301.890625 112.269531 L 301.863281 112.246094 L 301.761719 112.203125 C 301.761719 112.207031 301.683594 112.1875 301.746094 112.210938 L 301.863281 112.265625 L 302.09375 112.371094 C 301.632812 112.1875 302.027344 112.339844 301.949219 112.308594 L 302.054688 112.339844 C 303.160156 112.699219 304.25 112.925781 305.253906 112.964844 C 306.261719 113.003906 307.164062 112.84375 307.984375 112.488281 C 308.382812 112.308594 308.8125 112.035156 309.078125 111.851562 L 309.472656 111.527344 L 309.570312 111.441406 C 309.671875 111.355469 309.53125 111.480469 309.625 111.398438 L 310.011719 111.085938 C 310.320312 110.875 310.632812 110.667969 311.097656 110.484375 C 311.296875 110.394531 311.578125 110.320312 311.84375 110.265625 C 312.097656 110.203125 312.425781 110.1875 312.722656 110.191406 C 313.023438 110.195312 313.339844 110.253906 313.640625 110.324219 C 313.917969 110.410156 314.207031 110.519531 314.449219 110.648438 C 314.921875 110.90625 315.289062 111.214844 315.5625 111.5 C 316.113281 112.082031 316.402344 112.609375 316.632812 113.085938 C 317.078125 114.046875 317.296875 114.894531 317.453125 115.730469 C 317.75 117.402344 317.8125 118.976562 317.5625 120.738281 C 317.53125 120.957031 317.484375 121.183594 317.4375 121.414062 C 317.417969 121.515625 317.375 121.683594 317.339844 121.8125 L 317.28125 122.023438 L 317.238281 122.160156 L 317.132812 122.488281 L 317.027344 122.75 L 316.824219 123.269531 L 316.414062 124.308594 L 315.941406 125.328125 C 315.324219 126.6875 314.566406 127.96875 313.792969 129.210938 C 313.390625 129.824219 312.984375 130.417969 312.574219 131.007812 C 312.15625 131.578125 311.742188 132.171875 311.320312 132.722656 L 310.058594 134.371094 L 309.433594 135.183594 L 309.320312 135.320312 L 309.179688 135.484375 L 308.890625 135.8125 C 308.710938 135.984375 308.523438 136.167969 308.339844 136.320312 C 307.625 136.925781 306.972656 137.339844 306.355469 137.730469 L 304.640625 138.789062 C 304.125 139.117188 303.652344 139.453125 303.410156 139.691406 L 303.332031 139.769531 L 303.324219 139.769531 L 303.355469 139.734375 L 303.371094 139.6875 L 303.367188 139.667969 L 303.242188 139.890625 C 303.265625 139.835938 303.097656 140.167969 303.277344 139.796875 L 303.207031 139.941406 L 302.773438 140.785156 C 301.972656 142.238281 301 143.460938 300.097656 144.523438 C 299.210938 145.570312 298.335938 146.621094 297.765625 147.414062 L 297.230469 148.28125 L 297.097656 148.5 C 297.0625 148.558594 297.167969 148.375 297.089844 148.511719 L 297.019531 148.632812 L 296.742188 149.117188 C 296.378906 149.773438 295.960938 150.394531 295.558594 151.007812 C 294.726562 152.230469 293.914062 153.265625 293.273438 154.296875 C 293.089844 154.558594 292.976562 154.792969 292.828125 155.039062 L 292.609375 155.40625 L 292.386719 155.863281 L 292.15625 156.320312 L 292.042969 156.550781 L 291.984375 156.664062 C 292.035156 156.5625 291.976562 156.6875 291.976562 156.691406 C 291.890625 156.929688 291.769531 157.160156 291.699219 157.414062 C 291.371094 158.40625 291.230469 159.5 291.253906 160.679688 C 291.28125 163.042969 291.90625 165.65625 292.382812 168.386719 C 292.882812 171.203125 293.144531 174.203125 292.730469 177.222656 C 292.621094 177.976562 292.449219 178.71875 292.285156 179.472656 L 291.917969 180.632812 C 291.789062 181 291.671875 181.441406 291.527344 181.71875 L 291.105469 182.652344 L 290.894531 183.121094 C 290.890625 183.136719 290.769531 183.394531 290.785156 183.339844 L 290.71875 183.460938 L 290.585938 183.695312 L 289.496094 185.578125 C 288.710938 186.761719 287.941406 187.953125 287.089844 189.078125 L 286.46875 189.929688 L 285.84375 190.742188 C 285.40625 191.285156 285.0625 191.804688 284.496094 192.425781 C 283.464844 193.628906 282.277344 194.554688 281.199219 195.390625 C 280.660156 195.804688 280.140625 196.21875 279.675781 196.609375 C 279.46875 196.800781 279.269531 196.960938 279.046875 197.171875 L 278.421875 197.851562 C 278.117188 198.257812 277.902344 198.605469 277.882812 198.820312 C 277.886719 198.90625 277.882812 198.988281 277.875 199.078125 L 277.914062 199.484375 L 277.984375 200.027344 C 278.007812 200.203125 278.015625 200.496094 278.027344 200.726562 C 278.027344 200.839844 278.035156 200.984375 278.03125 201.074219 L 278.011719 201.328125 L 277.980469 201.710938 L 277.945312 201.96875 C 277.839844 202.410156 277.757812 202.871094 277.578125 203.261719 C 277.261719 204.09375 276.804688 204.742188 276.425781 205.316406 L 276.144531 205.734375 L 275.902344 206.113281 L 275.839844 206.203125 L 275.8125 206.265625 L 275.742188 206.386719 L 275.667969 206.503906 L 275.582031 206.742188 L 275.503906 206.984375 L 275.460938 207.105469 C 275.519531 206.890625 275.46875 207.101562 275.480469 207.078125 L 275.414062 207.464844 C 275.382812 207.59375 275.382812 207.722656 275.382812 207.851562 C 275.382812 207.984375 275.359375 208.097656 275.375 208.25 L 275.410156 208.691406 L 275.460938 209.230469 C 275.472656 209.429688 275.476562 209.671875 275.480469 209.886719 C 275.484375 210.109375 275.429688 210.371094 275.398438 210.609375 C 275.375 210.847656 275.277344 211.097656 275.1875 211.339844 C 275.101562 211.570312 274.988281 211.878906 274.90625 211.980469 L 274.648438 212.421875 L 274.582031 212.535156 L 274.445312 212.742188 L 274.207031 213.039062 C 273.882812 213.429688 273.515625 213.703125 273.183594 213.933594 C 272.875 214.140625 272.582031 214.320312 272.402344 214.457031 L 272.269531 214.558594 L 272.210938 214.605469 L 272.171875 214.625 L 272.097656 214.730469 L 271.945312 214.9375 C 271.902344 214.996094 272.015625 214.820312 271.960938 214.917969 L 271.941406 214.972656 L 271.886719 215.078125 C 271.855469 215.171875 271.835938 215.296875 271.800781 215.402344 C 271.699219 215.914062 271.703125 216.621094 271.523438 217.46875 L 271.492188 217.625 L 271.429688 217.824219 C 271.386719 217.960938 271.335938 218.09375 271.285156 218.226562 L 271.203125 218.421875 C 271.179688 218.476562 271.160156 218.5 271.136719 218.542969 L 270.9375 218.871094 C 270.761719 219.140625 270.824219 219.015625 270.757812 219.105469 L 270.53125 219.347656 C 270.378906 219.5 270.222656 219.6875 270.070312 219.796875 C 268.828125 220.800781 267.574219 221.410156 266.355469 222.054688 C 265.726562 222.382812 265.191406 222.644531 264.578125 223 L 263.691406 223.503906 L 262.78125 224.007812 C 261.578125 224.660156 260.433594 225.308594 259.5 226.09375 C 259.277344 226.289062 259.054688 226.457031 258.8125 226.722656 L 258.457031 227.09375 L 258.398438 227.152344 L 258.175781 227.421875 C 257.777344 227.90625 257.417969 228.441406 256.996094 229.027344 C 256.574219 229.605469 256.078125 230.207031 255.445312 230.738281 L 255.035156 231.050781 L 254.894531 231.15625 L 254.785156 231.230469 L 254.566406 231.375 C 254.28125 231.570312 253.984375 231.761719 253.683594 231.949219 C 252.488281 232.691406 251.160156 233.398438 249.621094 233.679688 C 248.851562 233.8125 248.066406 233.808594 247.308594 233.703125 C 246.546875 233.597656 245.839844 233.371094 245.148438 233.117188 C 243.792969 232.582031 242.5625 231.921875 241.359375 231.148438 C 240.171875 230.367188 239.050781 229.464844 238.054688 228.414062 C 237.066406 227.363281 236.238281 226.125 235.65625 224.757812 C 235.511719 224.414062 235.402344 224.058594 235.285156 223.703125 L 235.085938 222.847656 L 235.046875 222.59375 L 234.976562 222.085938 L 234.957031 221.917969 L 234.949219 221.789062 L 234.929688 221.527344 L 234.863281 220.476562 C 234.8125 219.085938 234.816406 217.699219 234.839844 216.335938 C 234.882812 213.601562 234.921875 210.941406 234.382812 208.363281 C 233.878906 205.792969 232.800781 203.347656 231.703125 200.859375 L 230.875 198.980469 L 230.464844 198.039062 C 230.328125 197.753906 230.210938 197.464844 230.050781 197.179688 C 229.464844 196.035156 228.71875 194.929688 227.96875 193.78125 C 227.21875 192.625 226.453125 191.425781 225.839844 190.058594 C 225.550781 189.363281 225.277344 188.648438 225.128906 187.863281 C 225.039062 187.496094 224.996094 187.054688 224.964844 186.617188 C 224.941406 186.378906 224.953125 186.230469 224.953125 186.054688 L 224.960938 185.796875 L 224.960938 185.671875 L 224.976562 185.460938 C 225.125 183.902344 225.585938 182.480469 226.054688 181.152344 L 226.769531 179.226562 C 226.984375 178.613281 227.21875 177.972656 227.347656 177.441406 L 227.46875 177.03125 L 227.5625 176.53125 L 227.652344 176.03125 L 227.675781 175.902344 C 227.675781 175.902344 227.707031 175.734375 227.679688 175.863281 L 227.691406 175.636719 L 227.738281 174.746094 C 227.75 174.445312 227.730469 174.097656 227.726562 173.777344 L 227.691406 171.597656 L 227.746094 170.574219 L 227.757812 170.320312 C 227.765625 170.230469 227.75 170.335938 227.78125 170.089844 L 227.800781 169.949219 L 227.882812 169.398438 C 228.125 167.929688 228.5 166.574219 228.792969 165.289062 C 229.085938 164.007812 229.324219 162.78125 229.277344 161.707031 C 229.265625 161.4375 229.253906 161.171875 229.203125 160.925781 C 229.179688 160.667969 229.09375 160.4375 229.035156 160.199219 C 228.976562 159.960938 228.851562 159.75 228.769531 159.519531 C 228.71875 159.433594 228.667969 159.347656 228.617188 159.261719 L 228.550781 159.128906 L 228.519531 159.0625 L 228.441406 158.957031 L 227.988281 158.339844 C 227.949219 158.28125 228.074219 158.453125 227.984375 158.335938 L 227.902344 158.242188 L 227.257812 157.476562 L 225.925781 155.921875 C 225.027344 154.863281 224.09375 153.742188 223.265625 152.4375 C 222.433594 151.140625 221.734375 149.636719 221.355469 148.046875 C 221.261719 147.652344 221.199219 147.253906 221.121094 146.851562 C 221.066406 146.453125 221.039062 146.058594 220.996094 145.660156 C 220.96875 145.253906 220.972656 144.828125 220.96875 144.410156 C 220.964844 144.1875 220.972656 144.023438 220.984375 143.855469 L 221.011719 143.347656 L 221.046875 142.761719 L 221.085938 142.269531 L 221.15625 141.296875 C 221.164062 140.699219 221.210938 140.058594 221.148438 139.550781 C 221.0625 138.476562 220.816406 137.667969 220.238281 136.703125 C 220.113281 136.46875 219.929688 136.242188 219.78125 136.007812 C 219.625 135.777344 219.492188 135.554688 219.257812 135.269531 L 218.625 134.464844 L 218.390625 134.160156 C 218.351562 134.113281 218.417969 134.199219 218.355469 134.125 L 218.074219 133.796875 C 217.316406 132.9375 216.507812 132.21875 215.621094 131.773438 C 215.1875 131.527344 214.714844 131.375 214.226562 131.230469 C 213.722656 131.109375 213.203125 131.011719 212.632812 130.972656 C 212.066406 130.933594 211.472656 130.921875 210.847656 130.941406 C 210.222656 130.957031 209.609375 131 208.90625 131.050781 C 207.441406 131.148438 205.902344 131.136719 204.527344 131.058594 C 203.84375 131.023438 203.171875 130.988281 202.535156 130.96875 C 202.199219 130.949219 201.902344 130.960938 201.585938 130.957031 L 201.121094 130.957031 C 200.972656 130.957031 200.84375 130.96875 200.703125 130.976562 L 200.292969 130.996094 C 200.15625 131.003906 200.03125 131 199.847656 131.03125 L 198.832031 131.160156 L 196.800781 131.464844 L 195.6875 131.570312 C 195.304688 131.597656 194.972656 131.65625 194.535156 131.648438 L 193.285156 131.652344 L 192.664062 131.648438 L 192.152344 131.589844 L 191.136719 131.480469 L 190.882812 131.449219 C 190.523438 131.402344 190.660156 131.414062 190.523438 131.390625 L 190.308594 131.34375 C 190.050781 131.273438 189.804688 131.195312 189.597656 131.117188 C 188.757812 130.804688 188.179688 130.507812 187.726562 130.34375 C 187.507812 130.261719 187.34375 130.222656 187.265625 130.210938 L 187.238281 130.195312 C 187.292969 130.1875 187.347656 130.171875 187.394531 130.140625 L 187.152344 130.210938 C 187.039062 130.25 187.464844 130.101562 187.351562 130.136719 L 187.460938 130.066406 C 187.519531 130.035156 187.566406 129.996094 187.597656 129.960938 L 187.632812 129.917969 L 187.605469 129.945312 C 187.535156 130.035156 187.40625 130.277344 187.246094 130.59375 C 187.082031 130.910156 186.890625 131.300781 186.578125 131.753906 C 186.503906 131.863281 186.421875 131.980469 186.316406 132.101562 C 186.214844 132.222656 186.121094 132.339844 185.984375 132.464844 C 185.851562 132.589844 185.757812 132.691406 185.523438 132.859375 C 185.417969 132.933594 185.3125 133.003906 185.203125 133.066406 C 185.066406 133.152344 185.046875 133.15625 185.007812 133.175781 L 184.890625 133.230469 L 184.4375 133.410156 C 184.292969 133.453125 184.121094 133.496094 183.996094 133.511719 C 183.890625 133.527344 183.78125 133.535156 183.675781 133.542969 C 183.261719 133.566406 182.984375 133.527344 182.722656 133.492188 C 182.21875 133.414062 181.804688 133.304688 181.425781 133.1875 C 179.910156 132.71875 178.644531 132.148438 177.355469 131.574219 C 176.082031 130.996094 174.839844 130.386719 173.621094 129.789062 C 173.011719 129.492188 172.402344 129.195312 171.828125 128.9375 L 171.421875 128.757812 L 171.28125 128.703125 L 171.164062 128.660156 C 171.113281 128.644531 171.167969 128.65625 171.078125 128.628906 L 169.976562 128.230469 C 168.535156 127.640625 167.179688 126.839844 165.984375 125.855469 C 163.566406 123.902344 161.910156 121.207031 160.972656 118.378906 C 160.863281 118.023438 160.746094 117.667969 160.652344 117.308594 L 160.402344 116.21875 C 160.277344 115.484375 160.164062 114.757812 160.121094 113.976562 C 160.082031 113.578125 160.085938 113.246094 160.085938 112.90625 L 160.082031 112.394531 L 160.085938 111.859375 L 160.09375 109.800781 C 160.117188 109.078125 160.140625 108.347656 160.277344 107.578125 L 160.378906 107 L 160.566406 106.347656 L 160.667969 106.027344 C 160.703125 105.929688 160.742188 105.867188 160.777344 105.785156 L 160.996094 105.324219 L 161.121094 105.09375 L 161.226562 104.945312 L 161.4375 104.652344 C 161.582031 104.460938 161.757812 104.320312 161.917969 104.15625 C 162.257812 103.859375 162.597656 103.636719 162.914062 103.445312 L 163.355469 103.183594 L 163.71875 102.953125 C 163.796875 102.890625 163.832031 102.878906 163.921875 102.816406 L 164.089844 102.621094 L 164.171875 102.523438 C 164.222656 102.46875 164.09375 102.636719 164.164062 102.527344 C 164.433594 102.144531 164.566406 101.621094 164.632812 101.058594 C 164.699219 100.488281 164.648438 99.851562 164.589844 99.21875 C 164.425781 97.933594 164.109375 96.613281 163.871094 95.230469 C 163.761719 94.535156 163.648438 93.832031 163.632812 93.085938 C 163.621094 92.730469 163.636719 92.261719 163.679688 91.929688 L 163.765625 91.378906 L 163.859375 90.890625 C 164.128906 89.59375 164.273438 88.246094 164.460938 86.886719 C 164.800781 84.1875 165.386719 81.257812 167.035156 78.953125 C 168.554688 76.582031 170.636719 74.753906 172.085938 72.496094 L 172.648438 71.640625 C 172.835938 71.335938 173.074219 71.0625 173.304688 70.789062 C 173.792969 70.253906 174.375 69.820312 174.984375 69.464844 C 176.203125 68.757812 177.496094 68.320312 178.546875 67.519531 C 178.800781 67.3125 179.054688 67.105469 179.277344 66.875 C 179.390625 66.769531 179.5 66.636719 179.609375 66.503906 L 179.777344 66.308594 L 179.847656 66.222656 L 179.914062 66.121094 C 180.085938 65.847656 180.28125 65.589844 180.394531 65.28125 C 180.542969 64.992188 180.640625 64.679688 180.738281 64.363281 C 180.917969 63.730469 181.03125 63.066406 181.144531 62.390625 C 181.25 61.722656 181.398438 61.015625 181.574219 60.367188 Z M 182.105469 60.503906 C 181.921875 61.175781 181.796875 61.804688 181.691406 62.484375 C 181.578125 63.15625 181.464844 63.839844 181.273438 64.519531 C 181.171875 64.859375 181.070312 65.195312 180.910156 65.515625 C 180.78125 65.851562 180.566406 66.148438 180.375 66.453125 L 180.300781 66.5625 L 180.210938 66.671875 L 180.046875 66.871094 C 179.9375 67 179.828125 67.132812 179.695312 67.261719 C 179.445312 67.527344 179.167969 67.75 178.894531 67.976562 C 177.765625 68.847656 176.433594 69.328125 175.304688 70.007812 C 174.738281 70.347656 174.226562 70.75 173.796875 71.230469 C 173.59375 71.484375 173.382812 71.726562 173.21875 72.011719 L 172.671875 72.875 C 171.21875 75.257812 169.164062 77.15625 167.8125 79.441406 C 167.4375 79.996094 167.1875 80.609375 166.886719 81.191406 C 166.679688 81.78125 166.394531 82.46875 166.277344 83.078125 C 166.101562 83.6875 166.015625 84.363281 165.902344 85.011719 C 165.820312 85.679688 165.742188 86.34375 165.691406 87.019531 C 165.574219 88.371094 165.5 89.746094 165.277344 91.136719 L 165.203125 91.660156 L 165.160156 92.121094 C 165.132812 92.304688 165.152344 92.429688 165.152344 92.574219 C 165.15625 92.714844 165.148438 92.84375 165.171875 93.007812 C 165.21875 93.628906 165.347656 94.269531 165.484375 94.914062 C 165.773438 96.214844 166.15625 97.53125 166.414062 98.945312 C 166.527344 99.664062 166.636719 100.394531 166.601562 101.1875 C 166.554688 101.96875 166.417969 102.824219 165.957031 103.609375 L 165.816406 103.832031 L 165.742188 103.933594 L 165.585938 104.136719 C 165.429688 104.308594 165.203125 104.519531 165.015625 104.675781 L 164.535156 105.019531 L 164.113281 105.308594 C 163.851562 105.488281 163.636719 105.65625 163.46875 105.824219 C 163.402344 105.910156 163.304688 105.984375 163.257812 106.074219 L 163.179688 106.203125 L 163.140625 106.265625 C 163.085938 106.367188 163.164062 106.191406 163.140625 106.257812 L 162.949219 106.734375 C 162.921875 106.808594 162.875 106.902344 162.863281 106.964844 L 162.835938 107.140625 C 162.816406 107.253906 162.792969 107.367188 162.761719 107.480469 L 162.714844 107.914062 C 162.648438 108.492188 162.660156 109.132812 162.679688 109.773438 L 162.796875 111.804688 L 162.820312 112.292969 L 162.859375 112.804688 C 162.878906 113.144531 162.894531 113.5 162.953125 113.773438 C 163.019531 114.355469 163.15625 114.96875 163.296875 115.574219 L 163.558594 116.46875 C 163.652344 116.765625 163.773438 117.050781 163.875 117.339844 C 164.800781 119.625 166.269531 121.671875 168.191406 123.066406 C 169.144531 123.765625 170.195312 124.3125 171.304688 124.699219 L 172.148438 124.953125 L 172.433594 125.039062 L 172.777344 125.152344 L 173.324219 125.355469 C 174.007812 125.621094 174.640625 125.890625 175.277344 126.160156 L 179.019531 127.738281 C 180.238281 128.238281 181.5 128.734375 182.613281 129.03125 C 182.886719 129.105469 183.140625 129.152344 183.308594 129.171875 C 183.386719 129.179688 183.453125 129.175781 183.378906 129.171875 L 183.316406 129.183594 C 183.273438 129.1875 183.183594 129.199219 183.121094 129.222656 C 183.179688 129.1875 182.792969 129.367188 182.90625 129.308594 L 183.019531 129.25 C 183.058594 129.230469 183.113281 129.203125 183.042969 129.230469 L 182.929688 129.289062 C 182.839844 129.363281 182.859375 129.335938 182.851562 129.34375 L 182.863281 129.324219 L 182.902344 129.261719 C 182.972656 129.148438 183.085938 128.925781 183.222656 128.632812 C 183.363281 128.332031 183.523438 127.957031 183.828125 127.476562 C 183.898438 127.359375 184.007812 127.214844 184.097656 127.089844 C 184.203125 126.957031 184.347656 126.804688 184.480469 126.667969 C 184.820312 126.363281 185.128906 126.109375 185.789062 125.875 L 186.03125 125.792969 C 186.25 125.738281 186.472656 125.691406 186.695312 125.660156 C 187.078125 125.617188 187.386719 125.617188 187.691406 125.644531 C 188.292969 125.699219 188.792969 125.832031 189.222656 125.96875 C 190.0625 126.25 190.710938 126.566406 191.160156 126.710938 C 191.273438 126.75 191.355469 126.769531 191.425781 126.785156 L 191.464844 126.792969 C 191.410156 126.785156 191.628906 126.820312 191.355469 126.78125 L 191.609375 126.804688 L 192.632812 126.894531 L 193.144531 126.941406 L 193.546875 126.917969 L 194.347656 126.890625 C 194.59375 126.898438 194.9375 126.832031 195.234375 126.804688 L 196.160156 126.699219 L 198.179688 126.371094 L 199.195312 126.230469 C 199.351562 126.203125 199.570312 126.191406 199.769531 126.175781 L 200.382812 126.132812 C 200.585938 126.121094 200.796875 126.101562 200.992188 126.097656 L 201.550781 126.089844 C 201.917969 126.089844 202.300781 126.082031 202.652344 126.09375 C 203.382812 126.113281 204.074219 126.140625 204.753906 126.167969 C 205.417969 126.1875 206.082031 126.230469 206.699219 126.226562 C 207.355469 126.246094 207.902344 126.199219 208.574219 126.175781 C 209.234375 126.132812 209.984375 126.082031 210.726562 126.066406 C 211.464844 126.046875 212.238281 126.058594 213.035156 126.125 C 213.832031 126.183594 214.65625 126.328125 215.480469 126.535156 C 216.300781 126.777344 217.132812 127.066406 217.890625 127.488281 C 219.445312 128.292969 220.699219 129.449219 221.730469 130.636719 L 222.109375 131.089844 L 222.242188 131.25 L 222.316406 131.351562 L 222.472656 131.558594 L 223.082031 132.378906 C 223.277344 132.625 223.507812 132.984375 223.726562 133.320312 C 223.9375 133.667969 224.171875 133.988281 224.367188 134.351562 L 224.925781 135.476562 C 225.105469 135.855469 225.230469 136.296875 225.375 136.710938 C 225.535156 137.125 225.582031 137.5625 225.664062 137.996094 C 225.699219 138.214844 225.742188 138.433594 225.765625 138.644531 L 225.792969 139.261719 C 225.859375 140.117188 225.789062 140.839844 225.753906 141.601562 L 225.652344 142.667969 L 225.597656 143.199219 L 225.5625 143.636719 L 225.523438 144.148438 C 225.507812 144.316406 225.492188 144.496094 225.5 144.613281 C 225.507812 144.878906 225.492188 145.136719 225.503906 145.410156 C 225.527344 145.691406 225.539062 145.976562 225.566406 146.253906 C 225.613281 146.527344 225.640625 146.804688 225.699219 147.074219 C 225.914062 148.15625 226.332031 149.179688 226.925781 150.207031 C 227.523438 151.230469 228.292969 152.253906 229.121094 153.304688 L 230.398438 154.914062 L 231.042969 155.738281 L 231.121094 155.84375 C 231.085938 155.789062 231.265625 156.03125 231.269531 156.042969 L 231.414062 156.253906 L 231.703125 156.679688 L 231.773438 156.789062 L 231.863281 156.945312 L 232.03125 157.265625 C 232.144531 157.480469 232.253906 157.695312 232.359375 157.910156 C 232.5 158.324219 232.679688 158.734375 232.777344 159.160156 C 232.875 159.585938 232.976562 160.011719 233.003906 160.4375 C 233.0625 160.867188 233.066406 161.285156 233.0625 161.699219 C 233.039062 163.359375 232.644531 164.816406 232.273438 166.179688 C 231.894531 167.535156 231.484375 168.800781 231.230469 170.019531 L 231.113281 170.585938 C 231.128906 170.425781 231.113281 170.613281 231.113281 170.613281 L 231.085938 170.867188 L 230.980469 171.882812 L 230.933594 173.796875 C 230.917969 174.160156 230.925781 174.496094 230.890625 174.875 L 230.773438 176.019531 L 230.742188 176.308594 C 230.707031 176.519531 230.71875 176.4375 230.703125 176.515625 L 230.671875 176.644531 L 230.558594 177.144531 L 230.4375 177.644531 L 230.257812 178.210938 C 230.019531 178.996094 229.746094 179.625 229.480469 180.289062 L 228.679688 182.164062 C 228.175781 183.382812 227.753906 184.566406 227.59375 185.730469 C 227.585938 185.78125 227.597656 185.664062 227.589844 185.773438 L 227.582031 185.902344 L 227.566406 186.15625 C 227.558594 186.324219 227.542969 186.515625 227.5625 186.617188 C 227.578125 186.859375 227.578125 187.101562 227.640625 187.398438 C 227.71875 187.960938 227.910156 188.539062 228.117188 189.109375 C 228.578125 190.261719 229.230469 191.402344 229.925781 192.5625 C 230.621094 193.726562 231.347656 194.925781 231.980469 196.226562 C 232.144531 196.542969 232.277344 196.890625 232.425781 197.222656 L 232.808594 198.171875 L 233.582031 200.058594 C 234.613281 202.582031 235.695312 205.203125 236.171875 208.019531 L 236.347656 209.070312 L 236.457031 210.121094 C 236.542969 210.785156 236.554688 211.519531 236.589844 212.226562 C 236.625 213.625 236.601562 215.003906 236.566406 216.367188 C 236.527344 217.730469 236.511719 219.074219 236.546875 220.410156 L 236.605469 221.40625 L 236.617188 221.652344 L 236.625 221.777344 C 236.625 221.824219 236.621094 221.78125 236.632812 221.863281 L 236.699219 222.367188 L 236.730469 222.621094 L 236.785156 222.835938 L 236.882812 223.261719 C 236.980469 223.550781 237.066406 223.851562 237.183594 224.136719 C 238.125 226.464844 240.09375 228.324219 242.277344 229.742188 C 244.484375 231.089844 247.003906 232.402344 249.320312 231.972656 C 250.484375 231.761719 251.613281 231.148438 252.714844 230.429688 C 252.988281 230.246094 253.261719 230.066406 253.539062 229.871094 L 253.742188 229.726562 L 253.84375 229.65625 L 253.90625 229.605469 L 254.304688 229.289062 C 254.707031 228.925781 255.089844 228.472656 255.460938 227.9375 C 255.828125 227.410156 256.214844 226.796875 256.671875 226.21875 L 256.84375 226.003906 L 256.929688 225.894531 L 257.046875 225.765625 L 257.394531 225.390625 C 257.605469 225.144531 257.914062 224.878906 258.199219 224.617188 C 259.34375 223.617188 260.589844 222.910156 261.761719 222.222656 C 262.054688 222.050781 262.351562 221.882812 262.628906 221.707031 L 263.507812 221.171875 C 264.066406 220.824219 264.746094 220.457031 265.320312 220.132812 C 266.492188 219.472656 267.683594 218.808594 268.542969 218.058594 C 268.671875 217.96875 268.714844 217.871094 268.804688 217.78125 L 268.925781 217.652344 C 268.914062 217.679688 269.046875 217.5 268.914062 217.695312 L 268.972656 217.582031 L 269.101562 217.359375 L 269.15625 217.253906 L 269.152344 217.207031 L 269.164062 217.121094 L 269.179688 217.078125 L 269.195312 216.984375 C 269.292969 216.488281 269.273438 215.824219 269.394531 214.988281 C 269.441406 214.761719 269.476562 214.546875 269.546875 214.316406 L 269.695312 213.949219 L 269.773438 213.765625 L 269.910156 213.527344 L 270.050781 213.3125 L 270.121094 213.207031 L 270.261719 213.042969 C 270.355469 212.933594 270.457031 212.828125 270.558594 212.726562 C 270.664062 212.621094 270.734375 212.574219 270.824219 212.496094 C 271.171875 212.207031 271.464844 212.027344 271.710938 211.839844 C 271.933594 211.671875 272.109375 211.523438 272.210938 211.378906 L 272.292969 211.269531 C 272.316406 211.242188 272.226562 211.378906 272.292969 211.265625 L 272.355469 211.15625 L 272.597656 210.703125 C 272.710938 210.523438 272.664062 210.492188 272.699219 210.398438 C 272.71875 210.320312 272.761719 210.257812 272.757812 210.152344 C 272.753906 210.050781 272.789062 209.976562 272.777344 209.855469 L 272.75 209.488281 L 272.6875 209.015625 L 272.621094 208.433594 C 272.59375 208.246094 272.605469 208.019531 272.597656 207.8125 C 272.597656 207.597656 272.589844 207.386719 272.628906 207.179688 L 272.707031 206.550781 C 272.726562 206.441406 272.6875 206.566406 272.761719 206.269531 L 272.796875 206.148438 L 272.867188 205.902344 L 272.941406 205.652344 L 273.089844 205.3125 L 273.246094 204.972656 L 273.332031 204.800781 L 273.402344 204.679688 L 273.691406 204.179688 L 273.96875 203.738281 C 274.316406 203.164062 274.625 202.664062 274.761719 202.203125 C 274.871094 201.972656 274.871094 201.746094 274.929688 201.527344 C 274.945312 201.40625 274.929688 201.601562 274.929688 201.53125 L 274.9375 201.402344 L 274.945312 201.148438 L 274.957031 200.890625 C 274.957031 200.808594 274.941406 200.785156 274.9375 200.730469 L 274.917969 200.585938 C 274.914062 200.535156 274.914062 200.5 274.898438 200.410156 L 274.816406 199.9375 L 274.734375 199.328125 C 274.71875 199.074219 274.714844 198.820312 274.71875 198.5625 C 274.757812 198.292969 274.804688 198.015625 274.863281 197.746094 C 274.933594 197.484375 275.042969 197.265625 275.144531 197.027344 C 275.195312 196.914062 275.246094 196.78125 275.304688 196.6875 L 275.484375 196.410156 L 275.851562 195.855469 L 275.992188 195.675781 L 276.078125 195.578125 L 276.242188 195.386719 L 276.578125 194.992188 C 276.832031 194.71875 277.140625 194.421875 277.425781 194.140625 C 277.984375 193.628906 278.519531 193.171875 279.042969 192.734375 C 280.089844 191.859375 281.027344 191.035156 281.742188 190.132812 C 282.089844 189.734375 282.492188 189.105469 282.886719 188.566406 L 283.476562 187.730469 L 284.027344 186.90625 C 284.777344 185.820312 285.445312 184.6875 286.128906 183.566406 L 287.019531 181.863281 L 287.1875 181.539062 L 287.378906 181.0625 L 287.765625 180.117188 C 287.925781 179.777344 287.945312 179.546875 288.027344 179.269531 L 288.253906 178.46875 C 288.351562 177.882812 288.476562 177.289062 288.542969 176.691406 C 288.792969 174.285156 288.515625 171.785156 287.980469 169.25 L 287.550781 167.261719 C 287.40625 166.59375 287.261719 165.90625 287.128906 165.210938 C 286.855469 163.820312 286.628906 162.355469 286.570312 160.804688 C 286.503906 159.261719 286.648438 157.601562 287.140625 155.984375 C 287.25 155.578125 287.421875 155.191406 287.570312 154.792969 C 287.605469 154.714844 287.578125 154.757812 287.660156 154.582031 L 287.714844 154.464844 L 287.820312 154.230469 L 288.042969 153.769531 L 288.257812 153.304688 L 288.542969 152.777344 C 288.738281 152.433594 288.929688 152.054688 289.125 151.75 C 289.902344 150.445312 290.761719 149.316406 291.441406 148.265625 C 291.78125 147.730469 292.117188 147.210938 292.40625 146.667969 L 292.628906 146.261719 L 292.933594 145.730469 L 293.460938 144.84375 C 294.429688 143.378906 295.324219 142.347656 296.175781 141.289062 C 297.027344 140.261719 297.722656 139.304688 298.226562 138.359375 C 298.390625 138.085938 298.789062 136.9375 299.753906 136.007812 C 300.488281 135.289062 301.148438 134.847656 301.773438 134.421875 L 303.523438 133.300781 C 304.0625 132.957031 304.550781 132.613281 304.867188 132.324219 L 305.066406 132.136719 L 305.113281 132.074219 L 305.140625 132.050781 L 305.191406 131.984375 L 305.800781 131.164062 L 307 129.539062 C 307.398438 129 307.757812 128.464844 308.136719 127.929688 C 308.496094 127.390625 308.851562 126.855469 309.1875 126.316406 C 309.839844 125.234375 310.464844 124.152344 310.957031 123.019531 L 311.335938 122.175781 L 311.832031 120.875 L 311.914062 120.65625 C 311.933594 120.605469 311.886719 120.734375 311.925781 120.621094 L 311.960938 120.5 L 311.992188 120.390625 L 312 120.351562 C 312.003906 120.316406 312.007812 120.320312 312.019531 120.253906 C 312.039062 120.148438 312.058594 120.042969 312.074219 119.921875 C 312.207031 118.980469 312.152344 117.792969 311.953125 116.78125 C 311.855469 116.28125 311.699219 115.800781 311.5625 115.527344 C 311.5 115.386719 311.429688 115.324219 311.503906 115.414062 C 311.542969 115.457031 311.636719 115.550781 311.816406 115.640625 C 311.90625 115.691406 312.03125 115.746094 312.148438 115.773438 C 312.28125 115.820312 312.429688 115.824219 312.5625 115.835938 C 312.6875 115.851562 312.84375 115.816406 312.933594 115.8125 C 313.03125 115.796875 313.144531 115.746094 313.191406 115.738281 C 313.332031 115.675781 313.359375 115.664062 313.386719 115.640625 L 313.375 115.652344 L 313.140625 115.855469 L 312.75 116.1875 C 311.929688 116.832031 311.191406 117.28125 310.351562 117.679688 C 309.511719 118.058594 308.628906 118.335938 307.738281 118.511719 C 306.847656 118.683594 305.960938 118.734375 305.09375 118.722656 C 304.230469 118.707031 303.398438 118.59375 302.589844 118.453125 C 301.789062 118.289062 301.003906 118.09375 300.265625 117.847656 L 300.125 117.804688 C 299.964844 117.746094 300.277344 117.871094 299.734375 117.660156 L 299.5 117.554688 L 299.386719 117.503906 C 299.367188 117.5 299.222656 117.417969 299.152344 117.378906 C 298.96875 117.273438 298.792969 117.167969 298.621094 117.050781 C 298.542969 117 298.433594 116.929688 298.382812 116.886719 L 298.230469 116.761719 L 297.925781 116.507812 C 297.714844 116.332031 297.574219 116.175781 297.402344 116.007812 C 296.761719 115.355469 296.277344 114.726562 295.820312 114.109375 C 294.929688 112.890625 294.171875 111.660156 293.46875 110.597656 C 293.296875 110.328125 293.128906 110.085938 292.996094 109.910156 L 292.394531 109.152344 C 291.964844 108.605469 291.574219 108.152344 291.140625 107.625 C 290.273438 106.589844 289.363281 105.503906 288.476562 104.355469 C 288.035156 103.761719 287.589844 103.179688 287.175781 102.535156 C 286.960938 102.222656 286.75 101.90625 286.554688 101.5625 L 285.992188 100.601562 C 284.777344 98.410156 283.164062 96.222656 281.714844 93.644531 C 280.992188 92.359375 280.300781 90.976562 279.78125 89.414062 C 279.648438 89.03125 279.546875 88.613281 279.433594 88.210938 L 279.304688 87.582031 L 279.238281 87.265625 L 279.195312 87.007812 C 279.082031 86.320312 278.972656 85.6875 278.851562 85.054688 C 278.375 82.519531 277.722656 80.234375 276.507812 78.480469 C 275.902344 77.597656 275.167969 76.824219 274.296875 76.148438 L 273.96875 75.898438 L 273.882812 75.835938 C 273.515625 75.554688 273.726562 75.710938 273.617188 75.628906 L 273.421875 75.464844 L 273.222656 75.304688 C 273.1875 75.269531 273.164062 75.257812 273.117188 75.210938 L 272.945312 75.042969 C 272.71875 74.8125 272.5 74.578125 272.292969 74.332031 C 271.640625 73.476562 271.199219 72.601562 270.902344 71.785156 C 270.3125 70.164062 270.089844 68.742188 269.777344 67.632812 C 269.628906 67.054688 269.453125 66.601562 269.269531 66.207031 L 269.125 65.9375 C 269.078125 65.847656 269.019531 65.789062 268.96875 65.710938 C 268.921875 65.632812 268.871094 65.558594 268.808594 65.507812 L 268.722656 65.414062 L 268.6875 65.367188 C 268.707031 65.382812 268.578125 65.265625 268.722656 65.386719 L 268.347656 65.070312 C 268.304688 65.054688 268.292969 65.03125 268.238281 64.996094 C 268.121094 64.925781 268.027344 64.871094 267.941406 64.847656 C 267.777344 64.789062 267.566406 64.765625 267.136719 64.839844 C 266.28125 64.984375 264.929688 65.558594 263.449219 65.980469 C 261.960938 66.414062 260.257812 66.683594 258.59375 66.582031 C 257.761719 66.535156 256.945312 66.410156 256.152344 66.234375 C 255.761719 66.132812 255.367188 66.042969 254.992188 65.917969 L 254.707031 65.828125 L 254.566406 65.78125 C 254.46875 65.75 254.578125 65.792969 254.316406 65.695312 L 253.839844 65.503906 C 253.722656 65.464844 253.425781 65.316406 253.191406 65.199219 C 252.945312 65.078125 252.714844 64.945312 252.519531 64.804688 C 252.105469 64.542969 251.710938 64.222656 251.378906 63.894531 C 250.707031 63.238281 250.226562 62.574219 250.117188 62.511719 L 250.078125 62.46875 L 250.0625 62.460938 L 250.019531 62.421875 L 249.875 62.386719 C 249.792969 62.382812 249.707031 62.375 249.621094 62.363281 C 249.402344 62.371094 249.191406 62.355469 248.910156 62.402344 L 248.707031 62.425781 L 248.605469 62.441406 C 248.601562 62.4375 248.472656 62.460938 248.570312 62.4375 L 248.070312 62.535156 C 246.878906 62.773438 246.042969 63.050781 245.171875 63.695312 C 244.71875 64.011719 244.183594 64.496094 243.480469 64.980469 C 242.785156 65.464844 241.96875 65.863281 241.183594 66.128906 C 240.785156 66.277344 240.394531 66.363281 240.007812 66.46875 C 240.109375 66.445312 239.699219 66.539062 239.695312 66.535156 L 239.570312 66.550781 C 239.554688 66.550781 239.410156 66.5625 239.300781 66.566406 C 239.183594 66.574219 239.070312 66.574219 238.957031 66.570312 C 238.617188 66.546875 238.382812 66.503906 238.152344 66.453125 C 237.246094 66.246094 236.570312 65.960938 235.878906 65.667969 C 234.523438 65.066406 233.28125 64.390625 232.058594 63.671875 C 230.839844 62.953125 229.65625 62.195312 228.492188 61.351562 C 227.90625 60.917969 227.339844 60.492188 226.746094 59.941406 C 226.597656 59.804688 226.445312 59.652344 226.285156 59.472656 L 226.160156 59.328125 L 226.039062 59.171875 L 225.886719 58.964844 C 225.683594 58.675781 225.492188 58.4375 225.28125 58.109375 C 225.070312 57.761719 224.839844 57.453125 224.65625 57.074219 L 224.378906 56.511719 C 224.292969 56.3125 224.222656 56.066406 224.148438 55.847656 C 224.011719 55.382812 223.945312 54.777344 224.078125 54.15625 C 224.230469 53.5625 224.554688 53.050781 224.792969 52.769531 C 225.300781 52.140625 225.519531 51.878906 225.632812 51.476562 C 225.765625 51.09375 225.710938 50.550781 225.648438 50 L 226.429688 50.875 C 225.449219 50.527344 224.453125 50.195312 223.421875 49.949219 C 222.394531 49.679688 221.351562 49.476562 220.300781 49.296875 C 219.246094 49.117188 218.183594 49 217.117188 48.902344 C 216.585938 48.859375 216.054688 48.835938 215.519531 48.796875 L 213.914062 48.761719 L 212.316406 48.792969 C 211.785156 48.832031 211.246094 48.847656 210.71875 48.90625 C 209.660156 49.015625 208.605469 49.152344 207.578125 49.402344 C 206.535156 49.617188 205.546875 49.976562 204.59375 50.394531 L 204.503906 50.433594 C 204.515625 50.425781 204.464844 50.453125 204.523438 50.417969 L 204.515625 50.425781 L 204.445312 50.460938 L 203.910156 50.761719 C 203.714844 50.90625 203.539062 51.015625 203.363281 51.179688 C 203.003906 51.488281 202.75 51.875 202.535156 52.316406 C 202.304688 52.757812 202.207031 53.292969 201.773438 53.898438 C 201.53125 54.179688 201.171875 54.425781 200.832031 54.492188 C 200.660156 54.539062 200.488281 54.574219 200.335938 54.570312 C 200.179688 54.574219 200.011719 54.597656 199.867188 54.578125 C 199.265625 54.535156 198.71875 54.4375 198.15625 54.285156 C 197.5625 54.09375 197.085938 53.890625 196.570312 53.679688 C 195.558594 53.257812 194.558594 52.824219 193.550781 52.445312 C 193.046875 52.257812 192.535156 52.085938 192.035156 51.96875 C 191.910156 51.9375 191.785156 51.910156 191.667969 51.898438 C 191.539062 51.875 191.4375 51.878906 191.335938 51.878906 L 191.308594 51.878906 C 191.324219 51.875 191.257812 51.886719 191.34375 51.867188 L 191.292969 51.882812 L 191.191406 51.90625 C 191.097656 51.921875 191.132812 51.945312 191.117188 51.945312 C 191.09375 51.953125 191.058594 52.007812 191.03125 52.082031 C 190.925781 52.457031 191.085938 53.058594 190.910156 53.707031 C 190.828125 54.039062 190.554688 54.371094 190.234375 54.515625 L 189.996094 54.609375 C 189.933594 54.632812 189.867188 54.648438 189.800781 54.667969 C 189.671875 54.710938 189.535156 54.746094 189.414062 54.792969 C 188.417969 55.136719 187.433594 55.601562 186.503906 56.140625 C 185.574219 56.675781 184.683594 57.285156 183.894531 58 C 183.105469 58.707031 182.425781 59.550781 182.101562 60.515625 L 182.105469 60.503906 "/></g><g clip-rule="nonzero" clip-path="url(#c03498a5ad)"><g transform="matrix(1,0,0,1,71,276)"><g id="e1c146f41c" clip-path="url(#5ad8368bb6)"><g style="fill:#222222;fill-opacity:1;"><g transform="translate(0.347058, 36.073956)"><path style="stroke:none" d="M 20.734375 -20.796875 L 7.359375 -20.796875 L 7.359375 -14.1875 L 19.328125 -14.1875 L 19.328125 -10.46875 L 7.359375 -10.46875 L 7.359375 -3.71875 L 21.15625 -3.71875 L 21.15625 0 L 3.21875 0 L 3.21875 -24.515625 L 20.734375 -24.515625 Z M 20.734375 -20.796875 "/></g></g><g style="fill:#222222;fill-opacity:1;"><g transform="translate(31.715588, 36.073956)"><path style="stroke:none" d="M 14.5625 -12.75 L 23.5 0 L 18.5625 0 L 11.9375 -9.25 L 5.359375 0 L 0.53125 0 L 9.453125 -12.578125 L 1.15625 -24.515625 L 5.953125 -24.515625 L 11.9375 -16 L 17.96875 -24.515625 L 22.796875 -24.515625 Z M 14.5625 -12.75 "/></g></g><g style="fill:#222222;fill-opacity:1;"><g transform="translate(64.344287, 36.073956)"><path style="stroke:none" d="M 14.078125 -24.609375 C 15.804688 -24.609375 17.492188 -24.273438 19.140625 -23.609375 C 20.785156 -22.953125 22.203125 -22.023438 23.390625 -20.828125 L 20.96875 -17.828125 C 20.082031 -18.785156 19.03125 -19.539062 17.8125 -20.09375 C 16.601562 -20.65625 15.378906 -20.9375 14.140625 -20.9375 C 11.691406 -20.9375 9.617188 -20.101562 7.921875 -18.4375 C 6.234375 -16.769531 5.390625 -14.734375 5.390625 -12.328125 C 5.390625 -9.898438 6.234375 -7.847656 7.921875 -6.171875 C 9.617188 -4.503906 11.691406 -3.671875 14.140625 -3.671875 C 16.691406 -3.671875 18.96875 -4.640625 20.96875 -6.578125 L 23.421875 -3.859375 C 22.160156 -2.617188 20.691406 -1.632812 19.015625 -0.90625 C 17.335938 -0.1875 15.644531 0.171875 13.9375 0.171875 C 10.34375 0.171875 7.316406 -1.019531 4.859375 -3.40625 C 2.410156 -5.800781 1.1875 -8.765625 1.1875 -12.296875 C 1.1875 -15.765625 2.429688 -18.679688 4.921875 -21.046875 C 7.410156 -23.421875 10.460938 -24.609375 14.078125 -24.609375 Z M 14.078125 -24.609375 "/></g></g><g style="fill:#222222;fill-opacity:1;"><g transform="translate(97.148001, 36.073956)"><path style="stroke:none" d="M 24.46875 0 L 20.34375 0 L 20.34375 -10.15625 L 7.359375 -10.15625 L 7.359375 0 L 3.21875 0 L 3.21875 -24.515625 L 7.359375 -24.515625 L 7.359375 -13.859375 L 20.34375 -13.859375 L 20.34375 -24.515625 L 24.46875 -24.515625 Z M 24.46875 0 "/></g></g><g style="fill:#222222;fill-opacity:1;"><g transform="translate(133.242105, 36.073956)"><path style="stroke:none" d="M 19.046875 -5.53125 L 6.6875 -5.53125 L 4.34375 0 L 0.03125 0 L 10.859375 -24.515625 L 15.09375 -24.515625 L 25.8125 0 L 21.390625 0 Z M 17.46875 -9.203125 L 12.84375 -20.09375 L 8.234375 -9.203125 Z M 17.46875 -9.203125 "/></g></g><g style="fill:#222222;fill-opacity:1;"><g transform="translate(167.480982, 36.073956)"><path style="stroke:none" d="M 24.46875 0 L 20.421875 0 L 7.359375 -17.578125 L 7.359375 0 L 3.21875 0 L 3.21875 -24.515625 L 7.28125 -24.515625 L 20.421875 -6.890625 L 20.421875 -24.515625 L 24.46875 -24.515625 Z M 24.46875 0 "/></g></g><g style="fill:#222222;fill-opacity:1;"><g transform="translate(203.610102, 36.073956)"><path style="stroke:none" d="M 20 -12.046875 L 23.59375 -12.046875 L 23.59375 -3.015625 C 22.332031 -2.054688 20.84375 -1.285156 19.125 -0.703125 C 17.414062 -0.117188 15.734375 0.171875 14.078125 0.171875 C 10.460938 0.171875 7.410156 -1.019531 4.921875 -3.40625 C 2.429688 -5.800781 1.1875 -8.75 1.1875 -12.25 C 1.1875 -15.75 2.445312 -18.679688 4.96875 -21.046875 C 7.488281 -23.421875 10.609375 -24.609375 14.328125 -24.609375 C 16.046875 -24.609375 17.738281 -24.300781 19.40625 -23.6875 C 21.082031 -23.070312 22.523438 -22.238281 23.734375 -21.1875 L 21.390625 -18.140625 C 19.390625 -20.003906 17.035156 -20.9375 14.328125 -20.9375 C 11.828125 -20.9375 9.710938 -20.09375 7.984375 -18.40625 C 6.253906 -16.726562 5.390625 -14.675781 5.390625 -12.25 C 5.390625 -9.800781 6.257812 -7.734375 8 -6.046875 C 9.738281 -4.367188 11.859375 -3.53125 14.359375 -3.53125 C 16.242188 -3.53125 18.125 -4.09375 20 -5.21875 Z M 20 -12.046875 "/></g></g><g style="fill:#222222;fill-opacity:1;"><g transform="translate(238.234027, 36.073956)"><path style="stroke:none" d="M 20.734375 -20.796875 L 7.359375 -20.796875 L 7.359375 -14.1875 L 19.328125 -14.1875 L 19.328125 -10.46875 L 7.359375 -10.46875 L 7.359375 -3.71875 L 21.15625 -3.71875 L 21.15625 0 L 3.21875 0 L 3.21875 -24.515625 L 20.734375 -24.515625 Z M 20.734375 -20.796875 "/></g></g></g></g></g><g clip-rule="nonzero" clip-path="url(#69ab0dc4a9)"><g transform="matrix(1,0,0,1,0,235)"><g id="e74dd30229" clip-path="url(#140220b9af)"><g style="fill:#222222;fill-opacity:1;"><g transform="translate(1.957805, 36.384232)"><path style="stroke:none" d="M 24.46875 0 L 20.34375 0 L 20.34375 -10.15625 L 7.359375 -10.15625 L 7.359375 0 L 3.21875 0 L 3.21875 -24.515625 L 7.359375 -24.515625 L 7.359375 -13.859375 L 20.34375 -13.859375 L 20.34375 -24.515625 L 24.46875 -24.515625 Z M 24.46875 0 "/></g></g><g style="fill:#222222;fill-opacity:1;"><g transform="translate(38.051909, 36.384232)"><path style="stroke:none" d="M 20.734375 -20.796875 L 7.359375 -20.796875 L 7.359375 -14.1875 L 19.328125 -14.1875 L 19.328125 -10.46875 L 7.359375 -10.46875 L 7.359375 -3.71875 L 21.15625 -3.71875 L 21.15625 0 L 3.21875 0 L 3.21875 -24.515625 L 20.734375 -24.515625 Z M 20.734375 -20.796875 "/></g></g><g style="fill:#222222;fill-opacity:1;"><g transform="translate(69.420439, 36.384232)"><path style="stroke:none" d="M 18.765625 0 L 14.28125 -7.421875 C 14.050781 -7.398438 13.679688 -7.390625 13.171875 -7.390625 L 7.359375 -7.390625 L 7.359375 0 L 3.21875 0 L 3.21875 -24.515625 L 13.171875 -24.515625 C 16.296875 -24.515625 18.722656 -23.785156 20.453125 -22.328125 C 22.179688 -20.867188 23.046875 -18.804688 23.046875 -16.140625 C 23.046875 -14.179688 22.609375 -12.523438 21.734375 -11.171875 C 20.859375 -9.816406 19.601562 -8.820312 17.96875 -8.1875 L 23.453125 0 Z M 7.359375 -11.09375 L 13.171875 -11.09375 C 17.140625 -11.09375 19.125 -12.738281 19.125 -16.03125 C 19.125 -19.207031 17.140625 -20.796875 13.171875 -20.796875 L 7.359375 -20.796875 Z M 7.359375 -11.09375 "/></g></g><g style="fill:#222222;fill-opacity:1;"><g transform="translate(103.13427, 36.384232)"><path style="stroke:none" d="M 7.359375 0 L 3.21875 0 L 3.21875 -24.515625 L 7.359375 -24.515625 Z M 7.359375 0 "/></g></g><g style="fill:#222222;fill-opacity:1;"><g transform="translate(122.111295, 36.384232)"><path style="stroke:none" d="M 19.953125 -20.796875 L 12.1875 -20.796875 L 12.1875 0 L 8.046875 0 L 8.046875 -20.796875 L 0.3125 -20.796875 L 0.3125 -24.515625 L 19.953125 -24.515625 Z M 19.953125 -20.796875 "/></g></g><g style="fill:#222222;fill-opacity:1;"><g transform="translate(150.784494, 36.384232)"><path style="stroke:none" d="M 19.046875 -5.53125 L 6.6875 -5.53125 L 4.34375 0 L 0.03125 0 L 10.859375 -24.515625 L 15.09375 -24.515625 L 25.8125 0 L 21.390625 0 Z M 17.46875 -9.203125 L 12.84375 -20.09375 L 8.234375 -9.203125 Z M 17.46875 -9.203125 "/></g></g><g style="fill:#222222;fill-opacity:1;"><g transform="translate(185.023371, 36.384232)"><path style="stroke:none" d="M 20 -12.046875 L 23.59375 -12.046875 L 23.59375 -3.015625 C 22.332031 -2.054688 20.84375 -1.285156 19.125 -0.703125 C 17.414062 -0.117188 15.734375 0.171875 14.078125 0.171875 C 10.460938 0.171875 7.410156 -1.019531 4.921875 -3.40625 C 2.429688 -5.800781 1.1875 -8.75 1.1875 -12.25 C 1.1875 -15.75 2.445312 -18.679688 4.96875 -21.046875 C 7.488281 -23.421875 10.609375 -24.609375 14.328125 -24.609375 C 16.046875 -24.609375 17.738281 -24.300781 19.40625 -23.6875 C 21.082031 -23.070312 22.523438 -22.238281 23.734375 -21.1875 L 21.390625 -18.140625 C 19.390625 -20.003906 17.035156 -20.9375 14.328125 -20.9375 C 11.828125 -20.9375 9.710938 -20.09375 7.984375 -18.40625 C 6.253906 -16.726562 5.390625 -14.675781 5.390625 -12.25 C 5.390625 -9.800781 6.257812 -7.734375 8 -6.046875 C 9.738281 -4.367188 11.859375 -3.53125 14.359375 -3.53125 C 16.242188 -3.53125 18.125 -4.09375 20 -5.21875 Z M 20 -12.046875 "/></g></g><g style="fill:#222222;fill-opacity:1;"><g transform="translate(219.647296, 36.384232)"><path style="stroke:none" d="M 20.734375 -20.796875 L 7.359375 -20.796875 L 7.359375 -14.1875 L 19.328125 -14.1875 L 19.328125 -10.46875 L 7.359375 -10.46875 L 7.359375 -3.71875 L 21.15625 -3.71875 L 21.15625 0 L 3.21875 0 L 3.21875 -24.515625 L 20.734375 -24.515625 Z M 20.734375 -20.796875 "/></g></g></g></g></g><path style="fill:none;stroke-width:5;stroke-linecap:butt;stroke-linejoin:miter;stroke:#ffffff;stroke-opacity:1;stroke-miterlimit:4;" d="M 0.00112617 2.500321 L 138.61476 2.500321 " transform="matrix(0.91182,0,0,0.91182,251.217723,161.556096)"/><path style="fill:none;stroke-width:5;stroke-linecap:butt;stroke-linejoin:miter;stroke:#ffffff;stroke-opacity:1;stroke-miterlimit:4;" d="M -0.00146797 2.50037 L 124.67626 2.50037 " transform="matrix(0.91182,0,0,0.91182,136.434932,117.407614)"/><g clip-rule="nonzero" clip-path="url(#dfddc6f90b)"><path style="fill:none;stroke-width:5;stroke-linecap:butt;stroke-linejoin:miter;stroke:#ffffff;stroke-opacity:1;stroke-miterlimit:4;" d="M 0.00184762 2.49957 L 306.553206 2.49957 " transform="matrix(0,0.91182,-0.91182,0,253.494001,2.892847)"/></g><g transform="matrix(1,0,0,1,5,204)"><g id="be42058071" clip-path="url(#eff9264737)"><g style="fill:#222222;fill-opacity:1;"><g transform="translate(1.914457, 24.027789)"><path style="stroke:none" d="M 13.375 -13.9375 L 8.171875 -13.9375 L 8.171875 0 L 5.390625 0 L 5.390625 -13.9375 L 0.21875 -13.9375 L 0.21875 -16.421875 L 13.375 -16.421875 Z M 13.375 -13.9375 "/></g></g><g style="fill:#222222;fill-opacity:1;"><g transform="translate(21.133266, 24.027789)"><path style="stroke:none" d="M 16.40625 0 L 13.640625 0 L 13.640625 -6.8125 L 4.921875 -6.8125 L 4.921875 0 L 2.15625 0 L 2.15625 -16.421875 L 4.921875 -16.421875 L 4.921875 -9.296875 L 13.640625 -9.296875 L 13.640625 -16.421875 L 16.40625 -16.421875 Z M 16.40625 0 "/></g></g><g style="fill:#222222;fill-opacity:1;"><g transform="translate(45.326488, 24.027789)"><path style="stroke:none" d="M 13.890625 -13.9375 L 4.921875 -13.9375 L 4.921875 -9.5 L 12.953125 -9.5 L 12.953125 -7.015625 L 4.921875 -7.015625 L 4.921875 -2.484375 L 14.171875 -2.484375 L 14.171875 0 L 2.15625 0 L 2.15625 -16.421875 L 13.890625 -16.421875 Z M 13.890625 -13.9375 "/></g></g></g></g></g></g></g></svg>